<svg width="1024" height="1024" viewBox="0 0 1024 1024" fill="none" xmlns="http://www.w3.org/2000/svg">
  <defs>
    <linearGradient id="bg" x1="140" y1="92" x2="896" y2="938" gradientUnits="userSpaceOnUse">
      <stop stop-color="#22D3EE"/>
      <stop offset="0.52" stop-color="#6366F1"/>
      <stop offset="1" stop-color="#EC4899"/>
    </linearGradient>
    <linearGradient id="book" x1="286" y1="222" x2="694" y2="764" gradientUnits="userSpaceOnUse">
      <stop stop-color="#F8FAFC"/>
      <stop offset="1" stop-color="#BFDBFE"/>
    </linearGradient>
  </defs>
  <rect x="44" y="44" width="936" height="936" rx="220" fill="url(#bg)"/>
  <rect x="62" y="62" width="900" height="900" rx="202" stroke="white" stroke-opacity="0.28" stroke-width="10"/>
  <circle cx="796" cy="256" r="104" fill="white" fill-opacity="0.14"/>
  <circle cx="246" cy="766" r="118" fill="white" fill-opacity="0.12"/>
  <path d="M274 286C274 254.49 299.49 229 331 229H682C713.51 229 739 254.49 739 286V692C739 723.51 713.51 749 682 749H331C299.49 749 274 723.51 274 692V286Z" fill="url(#book)"/>
  <path d="M512 229V749" stroke="#A5B4FC" stroke-width="10" stroke-opacity="0.65"/>
  <path d="M350 342H452" stroke="#6366F1" stroke-width="18" stroke-linecap="round" stroke-opacity="0.72"/>
  <path d="M350 408H448" stroke="#6366F1" stroke-width="18" stroke-linecap="round" stroke-opacity="0.5"/>
  <path d="M350 474H428" stroke="#6366F1" stroke-width="18" stroke-linecap="round" stroke-opacity="0.45"/>
  <path d="M572 342H674" stroke="#EC4899" stroke-width="18" stroke-linecap="round" stroke-opacity="0.72"/>
  <path d="M572 408H670" stroke="#EC4899" stroke-width="18" stroke-linecap="round" stroke-opacity="0.5"/>
  <path d="M572 474H650" stroke="#EC4899" stroke-width="18" stroke-linecap="round" stroke-opacity="0.45"/>
  <rect x="336" y="570" width="352" height="96" rx="30" fill="#0F172A" fill-opacity="0.12"/>
  <path d="M402 618L454 670L622 502" stroke="#10B981" stroke-width="30" stroke-linecap="round" stroke-linejoin="round"/>
  <text x="512" y="874" text-anchor="middle" fill="white" fill-opacity="0.92" font-family="Arial, sans-serif" font-size="106" font-weight="700">Study</text>
</svg>
