<svg width="1024" height="1024" viewBox="0 0 1024 1024" fill="none" xmlns="http://www.w3.org/2000/svg">
  <rect width="1024" height="1024" rx="220" fill="url(#bg)"/>
  <rect x="42" y="42" width="940" height="940" rx="190" stroke="rgba(255,255,255,0.18)" stroke-width="10"/>
  <g filter="url(#glow)">
    <rect x="150" y="188" width="724" height="468" rx="54" fill="url(#panel)"/>
  </g>
  <rect x="204" y="254" width="190" height="156" rx="34" fill="url(#card1)"/>
  <rect x="418" y="254" width="190" height="156" rx="34" fill="url(#card2)"/>
  <rect x="632" y="254" width="190" height="156" rx="34" fill="url(#card3)"/>
  <rect x="204" y="444" width="618" height="154" rx="34" fill="rgba(7,14,25,0.72)" stroke="rgba(255,255,255,0.1)" stroke-width="4"/>
  <rect x="204" y="642" width="294" height="152" rx="34" fill="rgba(7,14,25,0.62)" stroke="rgba(255,255,255,0.08)" stroke-width="4"/>
  <rect x="528" y="642" width="294" height="152" rx="34" fill="rgba(7,14,25,0.62)" stroke="rgba(255,255,255,0.08)" stroke-width="4"/>
  <circle cx="284" cy="331" r="44" fill="url(#accent1)"/>
  <circle cx="512" cy="331" r="44" fill="url(#accent2)"/>
  <circle cx="740" cy="331" r="44" fill="url(#accent3)"/>
  <rect x="264" y="516" width="246" height="20" rx="10" fill="rgba(255,255,255,0.86)"/>
  <rect x="264" y="552" width="166" height="14" rx="7" fill="rgba(255,255,255,0.38)"/>
  <rect x="548" y="500" width="228" height="22" rx="11" fill="rgba(255,255,255,0.8)"/>
  <rect x="548" y="540" width="178" height="14" rx="7" fill="rgba(255,255,255,0.34)"/>
  <rect x="240" y="694" width="170" height="18" rx="9" fill="rgba(255,255,255,0.82)"/>
  <rect x="240" y="728" width="116" height="12" rx="6" fill="rgba(255,255,255,0.32)"/>
  <rect x="566" y="694" width="176" height="18" rx="9" fill="rgba(255,255,255,0.82)"/>
  <rect x="566" y="728" width="130" height="12" rx="6" fill="rgba(255,255,255,0.32)"/>
  <text x="512" y="864" text-anchor="middle" fill="white" font-family="Arial, sans-serif" font-size="112" font-weight="700">Orderly</text>
  <defs>
    <linearGradient id="bg" x1="100" y1="64" x2="930" y2="960" gradientUnits="userSpaceOnUse">
      <stop stop-color="#1A1038"/>
      <stop offset="0.42" stop-color="#0C1F39"/>
      <stop offset="1" stop-color="#163024"/>
    </linearGradient>
    <linearGradient id="panel" x1="180" y1="208" x2="860" y2="654" gradientUnits="userSpaceOnUse">
      <stop stop-color="rgba(255,255,255,0.16)"/>
      <stop offset="1" stop-color="rgba(255,255,255,0.04)"/>
    </linearGradient>
    <linearGradient id="card1" x1="214" y1="266" x2="384" y2="400" gradientUnits="userSpaceOnUse">
      <stop stop-color="#38BDF8"/>
      <stop offset="1" stop-color="#2563EB"/>
    </linearGradient>
    <linearGradient id="card2" x1="430" y1="266" x2="598" y2="404" gradientUnits="userSpaceOnUse">
      <stop stop-color="#F59E0B"/>
      <stop offset="1" stop-color="#F97316"/>
    </linearGradient>
    <linearGradient id="card3" x1="644" y1="266" x2="812" y2="404" gradientUnits="userSpaceOnUse">
      <stop stop-color="#34D399"/>
      <stop offset="1" stop-color="#10B981"/>
    </linearGradient>
    <linearGradient id="accent1" x1="250" y1="292" x2="322" y2="367" gradientUnits="userSpaceOnUse">
      <stop stop-color="#DBEAFE"/>
      <stop offset="1" stop-color="#67E8F9"/>
    </linearGradient>
    <linearGradient id="accent2" x1="476" y1="291" x2="548" y2="366" gradientUnits="userSpaceOnUse">
      <stop stop-color="#FEF3C7"/>
      <stop offset="1" stop-color="#F59E0B"/>
    </linearGradient>
    <linearGradient id="accent3" x1="704" y1="291" x2="776" y2="366" gradientUnits="userSpaceOnUse">
      <stop stop-color="#DCFCE7"/>
      <stop offset="1" stop-color="#34D399"/>
    </linearGradient>
    <filter id="glow" x="110" y="148" width="804" height="548" filterUnits="userSpaceOnUse" color-interpolation-filters="sRGB">
      <feFlood flood-opacity="0" result="BackgroundImageFix"/>
      <feBlend mode="normal" in="SourceGraphic" in2="BackgroundImageFix" result="shape"/>
      <feGaussianBlur stdDeviation="20" result="effect1_foregroundBlur_1_1"/>
    </filter>
  </defs>
</svg>
